<?xml version="1.0" encoding="utf-8"?>
<!-- Generator: Adobe Illustrator 16.0.3, SVG Export Plug-In . SVG Version: 6.00 Build 0)  -->
<!DOCTYPE svg PUBLIC "-//W3C//DTD SVG 1.1//EN" "http://www.w3.org/Graphics/SVG/1.1/DTD/svg11.dtd">
<svg version="1.1" id="Capa_1" xmlns="http://www.w3.org/2000/svg" xmlns:xlink="http://www.w3.org/1999/xlink" x="0px" y="0px"
	 width="841.891px" height="595.281px" viewBox="0 0 841.891 595.281" enable-background="new 0 0 841.891 595.281"
	 xml:space="preserve">
<polygon fill="#EFEFEF" points="640.058,566.961 453.067,379.97 503.256,329.768 690.259,516.772 710.106,586.809 "/>
<path fill="#0DA3C8" d="M347.857,485.656c-45.142-45.141-45.269-118.713-0.28-164.004l97.369-97.369
	c21.912-21.766,50.987-33.75,81.872-33.75c31.033,0,60.206,12.084,82.148,34.026l3.112,3.14L504.943,334.834l-45.149,45.139
	l-1.663,1.686L350.989,488.789L347.857,485.656z"/>
<path fill="#1D79AE" d="M250.991,228.431l100.738-100.737l98.28,98.28l-98.777,98.763c-0.058,0.058-0.118,0.116-0.17,0.174
	l-1.68,1.915L250.991,228.431z"/>
<polygon fill="#0DA3C8" points="361.347,5.815 354.06,132.115 255.413,230.762 129.126,238.051 "/>
<path d="M428.571,310.811l-61.948,61.949c-4.661,4.661-4.661,12.218,0,16.881c2.331,2.331,5.385,3.496,8.439,3.496
	s6.108-1.165,8.439-3.496l61.949-61.949c4.661-4.661,4.661-12.219,0-16.881C440.79,306.15,433.235,306.15,428.571,310.811z"/>
<path d="M459.134,309.066c15.359,0,15.385-23.872,0-23.872C443.773,285.194,443.748,309.066,459.134,309.066z"/>
<path d="M135.243,247.242c0.229,0,0.46-0.006,0.69-0.02l113.776-6.567l83.109,83.111c-40.516,49.319-37.73,122.628,8.284,168.64
	l1.444,1.444c2.238,2.238,5.274,3.497,8.439,3.497c0,0,0,0,0.001,0c3.166,0,6.2-1.257,8.438-3.496l97.008-97.008l176.432,176.429
	c1.44,1.44,3.227,2.487,5.187,3.044l65.337,18.514c1.074,0.305,2.167,0.452,3.254,0.452c3.123,0,6.173-1.227,8.441-3.496
	c3.059-3.06,4.223-7.533,3.044-11.694l-18.514-65.325c-0.555-1.96-1.603-3.745-3.044-5.187L520.135,333.145l97.015-97.015
	c4.648-4.648,4.662-12.181,0.034-16.848l-1.468-1.479c-46.02-46.017-119.332-48.803-168.655-8.284l-83.109-83.109l6.565-113.789
	c0.285-4.944-2.513-9.553-7.033-11.579s-9.821-1.05-13.323,2.452L126.806,226.867c-3.503,3.504-4.478,8.804-2.452,13.324
	C126.287,244.499,130.564,247.242,135.243,247.242z M351.729,147.95l78.021,78.021l-80.486,80.478l-78.018-78.018L351.729,147.95z
	 M677.496,524.264l11.837,41.771l-41.782-11.838L473.316,379.966l29.938-29.938L677.496,524.264z M591.5,228.019l-96.594,96.603
	c-0.029,0.029-0.061,0.052-0.09,0.081l-46.823,46.813c-0.082,0.081-0.15,0.17-0.229,0.253l-96.436,96.426
	c-32.787-39.841-30.678-99.099,6.399-136.438l97.06-97.061l0.267-0.266C492.405,197.342,551.683,195.243,591.5,228.019z
	 M344.882,42.54l-4.808,83.303l-90.934,90.935l-83.293,4.807L344.882,42.54z"/>
</svg>
