<?xml version="1.0" encoding="utf-8"?>
<!-- Generator: Adobe Illustrator 16.0.3, SVG Export Plug-In . SVG Version: 6.00 Build 0)  -->
<!DOCTYPE svg PUBLIC "-//W3C//DTD SVG 1.1//EN" "http://www.w3.org/Graphics/SVG/1.1/DTD/svg11.dtd">
<svg version="1.1" id="Capa_1" xmlns="http://www.w3.org/2000/svg" xmlns:xlink="http://www.w3.org/1999/xlink" x="0px" y="0px"
	 width="841.891px" height="595.281px" viewBox="0 0 841.891 595.281" enable-background="new 0 0 841.891 595.281"
	 xml:space="preserve">
<polygon fill="#EFEFEF" points="640.058,566.962 453.067,379.97 503.256,329.768 690.259,516.772 710.106,586.809 "/>
<path fill="#0DA353" d="M347.857,485.656c-45.142-45.141-45.269-118.713-0.279-164.004l97.368-97.369
	c21.912-21.766,50.987-33.75,81.872-33.75c31.033,0,60.206,12.084,82.148,34.026l3.111,3.14L504.943,334.835l-45.148,45.139
	l-1.663,1.686l-107.143,107.13L347.857,485.656z"/>
<path fill="#1D790A" d="M250.991,228.431l100.737-100.737l98.28,98.28l-98.777,98.763c-0.058,0.059-0.118,0.116-0.17,0.174
	l-1.68,1.915L250.991,228.431z"/>
<polygon fill="#0DA353" points="361.347,5.815 354.06,132.115 255.413,230.762 129.126,238.051 "/>
<path d="M428.571,310.811l-61.947,61.949c-4.661,4.661-4.661,12.218,0,16.881c2.331,2.331,5.385,3.496,8.438,3.496
	c3.055,0,6.108-1.165,8.439-3.496l61.948-61.949c4.661-4.661,4.661-12.219,0-16.881C440.789,306.15,433.235,306.15,428.571,310.811z
	"/>
<path d="M459.134,309.066c15.358,0,15.385-23.872,0-23.872C443.773,285.194,443.747,309.066,459.134,309.066z"/>
<path d="M135.243,247.242c0.229,0,0.46-0.006,0.689-0.02l113.776-6.567l83.108,83.111c-40.516,49.319-37.729,122.628,8.284,168.64
	l1.444,1.444c2.238,2.238,5.273,3.497,8.438,3.497c0,0,0,0,0.001,0c3.166,0,6.2-1.257,8.438-3.496l97.008-97.008l176.432,176.429
	c1.44,1.44,3.228,2.487,5.188,3.044l65.337,18.514c1.074,0.306,2.167,0.452,3.254,0.452c3.123,0,6.173-1.227,8.441-3.496
	c3.059-3.06,4.223-7.532,3.044-11.693l-18.515-65.325c-0.555-1.96-1.603-3.745-3.044-5.188L520.135,333.145l97.015-97.016
	c4.648-4.647,4.662-12.181,0.034-16.848l-1.468-1.479c-46.021-46.018-119.332-48.804-168.655-8.284l-83.108-83.109l6.564-113.789
	c0.285-4.943-2.513-9.553-7.033-11.579c-4.52-2.025-9.82-1.05-13.322,2.452L126.806,226.867c-3.503,3.504-4.478,8.804-2.452,13.324
	C126.287,244.499,130.564,247.242,135.243,247.242z M351.729,147.95l78.021,78.021l-80.485,80.478l-78.018-78.018L351.729,147.95z
	 M677.495,524.264l11.837,41.771l-41.781-11.838l-174.235-174.23l29.938-29.938L677.495,524.264z M591.499,228.019l-96.594,96.603
	c-0.028,0.029-0.061,0.053-0.09,0.081l-46.823,46.813c-0.082,0.081-0.149,0.17-0.229,0.253l-96.436,96.426
	c-32.787-39.841-30.679-99.099,6.398-136.438l97.06-97.062l0.268-0.266C492.405,197.342,551.683,195.243,591.499,228.019z
	 M344.882,42.54l-4.809,83.304l-90.934,90.935l-83.293,4.807L344.882,42.54z"/>
</svg>
