<?xml version="1.0" encoding="utf-8"?>
<!-- Generator: Adobe Illustrator 16.0.3, SVG Export Plug-In . SVG Version: 6.00 Build 0)  -->
<!DOCTYPE svg PUBLIC "-//W3C//DTD SVG 1.1//EN" "http://www.w3.org/Graphics/SVG/1.1/DTD/svg11.dtd">
<svg version="1.1" id="Capa_1" xmlns="http://www.w3.org/2000/svg" xmlns:xlink="http://www.w3.org/1999/xlink" x="0px" y="0px"
	 width="24px" height="24px" viewBox="0 0 24 24" enable-background="new 0 0 24 24" xml:space="preserve">
<path fill="#FFFFFF" d="M4.404,3C3.757,3,3.378,3.729,3.748,4.26l5.988,8.559l-6.012,7.027C3.335,20.3,3.658,21,4.256,21H4.92
	c0.293,0,0.572-0.129,0.762-0.352l5.238-6.137l3.943,5.635C15.238,20.681,15.85,21,16.502,21h3.334c0.646,0,1.026-0.729,0.656-1.258
	l-6.318-9.043L19.9,3.99C20.232,3.6,19.955,3,19.443,3h-0.846c-0.292,0-0.57,0.127-0.76,0.35l-4.842,5.66L9.395,3.855
	C9.021,3.319,8.41,3,7.756,3H4.404z"/>
</svg>
