<?xml version="1.0" encoding="utf-8"?>
<!-- Generator: Adobe Illustrator 16.0.3, SVG Export Plug-In . SVG Version: 6.00 Build 0)  -->
<!DOCTYPE svg PUBLIC "-//W3C//DTD SVG 1.1//EN" "http://www.w3.org/Graphics/SVG/1.1/DTD/svg11.dtd">
<svg version="1.1" id="Capa_1" xmlns="http://www.w3.org/2000/svg" xmlns:xlink="http://www.w3.org/1999/xlink" x="0px" y="0px"
	 width="24px" height="24px" viewBox="0 0 24 24" enable-background="new 0 0 24 24" xml:space="preserve">
<path fill="#FFFFFF" d="M8,3C5.243,3,3,5.243,3,8v8c0,2.757,2.243,5,5,5h8c2.757,0,5-2.243,5-5V8c0-2.757-2.243-5-5-5H8z M8,5h8
	c1.654,0,3,1.346,3,3v8c0,1.654-1.346,3-3,3H8c-1.654,0-3-1.346-3-3V8C5,6.346,6.346,5,8,5z M17,6c-0.553,0-1,0.448-1,1s0.447,1,1,1
	s1-0.448,1-1S17.553,6,17,6z M12,7c-2.757,0-5,2.243-5,5s2.243,5,5,5s5-2.243,5-5S14.757,7,12,7z M12,9c1.654,0,3,1.346,3,3
	c0,1.654-1.346,3-3,3c-1.654,0-3-1.346-3-3C9,10.346,10.346,9,12,9z"/>
</svg>
